# xmcd CD database file
#
# Track frame offsets:
#	150
#	15511
#	27729
#	46506
#	58249
#	74908
#	94647
#	108666
#	130482
#	145497
#	162654
#	180418
#	194226
#	212182
#	232546
#	250890
#	267190
#	283626
#	301889
#	315402
#	327124
#
# Disc length: 4547 seconds
#
# Revision: 0
# Processed by: cddbd v1.5.2PL0 Copyright (c) Steve Scherf et al.
# Submitted via: CDex 1.51
#
DISCID=3b11c115
DTITLE=Various Artist - Gotta Go Country
DYEAR=2007
DGENRE=Country
TTITLE0=Grandpa's Piano - Adam Brand
TTITLE1=TV Or Me - Melinda Schneider
TTITLE2=Rose And Rodeo - Brendon Walmsley
TTITLE3=While The Wife's Away - Michael Carr
TTITLE4=Good Friends  - Adam Brand
TTITLE5=The Story Of My Life - Melinda Schneider
TTITLE6=Adam - Brendon Walmsley
TTITLE7=The ANZAC - Adam Brand
TTITLE8=I'll Fly Away - Dianna Corcoran
TTITLE9=Real People - Melinda Schneider
TTITLE10=Get Loud - Adam Brand
TTITLE11=Rousy's Life - The Sunny Cowgirls
TTITLE12=Big World, Small World - Melinda Schneider
TTITLE13=Snowman's Daughter - Anne Kirkpatrick
TTITLE14=Higher Than Heaven - James Blundell
TTITLE15=Six Pack Short - The Sunny Cowgirls
TTITLE16=Then There's Me - Dianna Corcoran
TTITLE17=Open Ended Heartache - Adam Brand
TTITLE18=The Bloke Who Serves The Beer - Peter Denahy
TTITLE19=Little Things - Kirsty Lee Akers
TTITLE20=Regular Guy - Rob Black
EXTD=YEAR: 2007
EXTT0=
EXTT1=
EXTT2=
EXTT3=
EXTT4=
EXTT5=
EXTT6=
EXTT7=
EXTT8=
EXTT9=
EXTT10=
EXTT11=
EXTT12=
EXTT13=
EXTT14=
EXTT15=
EXTT16=
EXTT17=
EXTT18=
EXTT19=
EXTT20=
PLAYORDER=
